<svg width="914" height="148" viewBox="0 0 914 148" fill="none" xmlns="http://www.w3.org/2000/svg">
<mask id="path-1-outside-1_95_70" maskUnits="userSpaceOnUse" x="0" y="0" width="914" height="148" fill="black">
<rect fill="white" width="914" height="148"/>
<path d="M1.64205 147V1.54545H59.8807C70.5814 1.54545 79.5066 3.13163 86.6562 6.30398C93.8059 9.47633 99.1799 13.8797 102.778 19.5142C106.377 25.1013 108.176 31.5407 108.176 38.8324C108.176 44.5142 107.04 49.5095 104.767 53.8182C102.494 58.0795 99.3693 61.5833 95.392 64.3295C91.4621 67.0284 86.964 68.946 81.8977 70.0824V71.5028C87.4375 71.7396 92.6222 73.3021 97.4517 76.1903C102.329 79.0786 106.282 83.1269 109.312 88.3352C112.343 93.4962 113.858 99.6515 113.858 106.801C113.858 114.519 111.94 121.408 108.105 127.469C104.317 133.482 98.7064 138.241 91.2727 141.744C83.839 145.248 74.6771 147 63.7869 147H1.64205ZM32.3949 121.858H57.4659C66.036 121.858 72.286 120.224 76.2159 116.957C80.1458 113.643 82.1108 109.24 82.1108 103.747C82.1108 99.7225 81.1402 96.1714 79.1989 93.0938C77.2576 90.0161 74.4877 87.6013 70.8892 85.8494C67.3381 84.0975 63.1004 83.2216 58.1761 83.2216H32.3949V121.858ZM32.3949 62.4119H55.1932C59.4072 62.4119 63.1477 61.678 66.4148 60.2102C69.7292 58.6951 72.3333 56.5644 74.2273 53.8182C76.1686 51.072 77.1392 47.7812 77.1392 43.946C77.1392 38.6903 75.2689 34.4527 71.5284 31.233C67.8352 28.0133 62.5795 26.4034 55.7614 26.4034H32.3949V62.4119ZM133.869 147V1.54545H191.255C202.24 1.54545 211.615 3.51041 219.38 7.44034C227.192 11.3229 233.135 16.839 237.207 23.9886C241.326 31.0909 243.386 39.4479 243.386 49.0597C243.386 58.7187 241.302 67.0284 237.136 73.9886C232.969 80.9015 226.932 86.2045 219.025 89.8977C211.165 93.5909 201.648 95.4375 190.474 95.4375H152.05V70.7216H185.502C191.373 70.7216 196.25 69.9167 200.133 68.3068C204.015 66.697 206.904 64.2822 208.798 61.0625C210.739 57.8428 211.71 53.8419 211.71 49.0597C211.71 44.2301 210.739 40.1581 208.798 36.8438C206.904 33.5294 203.992 31.0199 200.062 29.3153C196.179 27.5634 191.279 26.6875 185.36 26.6875H164.621V147H133.869ZM212.42 80.8068L248.57 147H214.621L179.252 80.8068H212.42ZM265.119 147V1.54545H363.13V26.9006H295.871V61.5597H358.087V86.9148H295.871V121.645H363.414V147H265.119ZM412.651 147H379.696L429.909 1.54545H469.54L519.682 147H486.727L450.293 34.7841H449.156L412.651 147ZM410.591 89.8267H488.432V113.832H410.591V89.8267ZM537.189 147V1.54545H567.942V65.679H569.859L622.203 1.54545H659.064L605.087 66.6733L659.703 147H622.913L583.07 87.1989L567.942 105.665V147H537.189ZM675.08 147V1.54545H773.091V26.9006H705.832V61.5597H768.048V86.9148H705.832V121.645H773.375V147H675.08ZM797.54 147V1.54545H854.927C865.912 1.54545 875.287 3.51041 883.052 7.44034C890.864 11.3229 896.807 16.839 900.879 23.9886C904.998 31.0909 907.058 39.4479 907.058 49.0597C907.058 58.7187 904.974 67.0284 900.808 73.9886C896.641 80.9015 890.604 86.2045 882.697 89.8977C874.837 93.5909 865.32 95.4375 854.146 95.4375H815.722V70.7216H849.174C855.045 70.7216 859.922 69.9167 863.805 68.3068C867.687 66.697 870.576 64.2822 872.469 61.0625C874.411 57.8428 875.381 53.8419 875.381 49.0597C875.381 44.2301 874.411 40.1581 872.469 36.8438C870.576 33.5294 867.664 31.0199 863.734 29.3153C859.851 27.5634 854.951 26.6875 849.032 26.6875H828.293V147H797.54ZM876.092 80.8068L912.242 147H878.293L842.924 80.8068H876.092Z"/>
</mask>
<path d="M1.64205 147V1.54545H59.8807C70.5814 1.54545 79.5066 3.13163 86.6562 6.30398C93.8059 9.47633 99.1799 13.8797 102.778 19.5142C106.377 25.1013 108.176 31.5407 108.176 38.8324C108.176 44.5142 107.04 49.5095 104.767 53.8182C102.494 58.0795 99.3693 61.5833 95.392 64.3295C91.4621 67.0284 86.964 68.946 81.8977 70.0824V71.5028C87.4375 71.7396 92.6222 73.3021 97.4517 76.1903C102.329 79.0786 106.282 83.1269 109.312 88.3352C112.343 93.4962 113.858 99.6515 113.858 106.801C113.858 114.519 111.94 121.408 108.105 127.469C104.317 133.482 98.7064 138.241 91.2727 141.744C83.839 145.248 74.6771 147 63.7869 147H1.64205ZM32.3949 121.858H57.4659C66.036 121.858 72.286 120.224 76.2159 116.957C80.1458 113.643 82.1108 109.24 82.1108 103.747C82.1108 99.7225 81.1402 96.1714 79.1989 93.0938C77.2576 90.0161 74.4877 87.6013 70.8892 85.8494C67.3381 84.0975 63.1004 83.2216 58.1761 83.2216H32.3949V121.858ZM32.3949 62.4119H55.1932C59.4072 62.4119 63.1477 61.678 66.4148 60.2102C69.7292 58.6951 72.3333 56.5644 74.2273 53.8182C76.1686 51.072 77.1392 47.7812 77.1392 43.946C77.1392 38.6903 75.2689 34.4527 71.5284 31.233C67.8352 28.0133 62.5795 26.4034 55.7614 26.4034H32.3949V62.4119ZM133.869 147V1.54545H191.255C202.24 1.54545 211.615 3.51041 219.38 7.44034C227.192 11.3229 233.135 16.839 237.207 23.9886C241.326 31.0909 243.386 39.4479 243.386 49.0597C243.386 58.7187 241.302 67.0284 237.136 73.9886C232.969 80.9015 226.932 86.2045 219.025 89.8977C211.165 93.5909 201.648 95.4375 190.474 95.4375H152.05V70.7216H185.502C191.373 70.7216 196.25 69.9167 200.133 68.3068C204.015 66.697 206.904 64.2822 208.798 61.0625C210.739 57.8428 211.71 53.8419 211.71 49.0597C211.71 44.2301 210.739 40.1581 208.798 36.8438C206.904 33.5294 203.992 31.0199 200.062 29.3153C196.179 27.5634 191.279 26.6875 185.36 26.6875H164.621V147H133.869ZM212.42 80.8068L248.57 147H214.621L179.252 80.8068H212.42ZM265.119 147V1.54545H363.13V26.9006H295.871V61.5597H358.087V86.9148H295.871V121.645H363.414V147H265.119ZM412.651 147H379.696L429.909 1.54545H469.54L519.682 147H486.727L450.293 34.7841H449.156L412.651 147ZM410.591 89.8267H488.432V113.832H410.591V89.8267ZM537.189 147V1.54545H567.942V65.679H569.859L622.203 1.54545H659.064L605.087 66.6733L659.703 147H622.913L583.07 87.1989L567.942 105.665V147H537.189ZM675.08 147V1.54545H773.091V26.9006H705.832V61.5597H768.048V86.9148H705.832V121.645H773.375V147H675.08ZM797.54 147V1.54545H854.927C865.912 1.54545 875.287 3.51041 883.052 7.44034C890.864 11.3229 896.807 16.839 900.879 23.9886C904.998 31.0909 907.058 39.4479 907.058 49.0597C907.058 58.7187 904.974 67.0284 900.808 73.9886C896.641 80.9015 890.604 86.2045 882.697 89.8977C874.837 93.5909 865.32 95.4375 854.146 95.4375H815.722V70.7216H849.174C855.045 70.7216 859.922 69.9167 863.805 68.3068C867.687 66.697 870.576 64.2822 872.469 61.0625C874.411 57.8428 875.381 53.8419 875.381 49.0597C875.381 44.2301 874.411 40.1581 872.469 36.8438C870.576 33.5294 867.664 31.0199 863.734 29.3153C859.851 27.5634 854.951 26.6875 849.032 26.6875H828.293V147H797.54ZM876.092 80.8068L912.242 147H878.293L842.924 80.8068H876.092Z" fill="url(#paint0_linear_95_70)"/>
<path d="M1.64205 147H0.642045V148H1.64205V147ZM1.64205 1.54545V0.54545H0.642045V1.54545H1.64205ZM86.6562 6.30398L86.2507 7.21804L86.2507 7.21804L86.6562 6.30398ZM102.778 19.5142L101.936 20.0525L101.938 20.0557L102.778 19.5142ZM104.767 53.8182L105.649 54.2888L105.652 54.2847L104.767 53.8182ZM95.392 64.3295L95.9582 65.1539L95.9602 65.1524L95.392 64.3295ZM81.8977 70.0824L81.6789 69.1066L80.8977 69.2818V70.0824H81.8977ZM81.8977 71.5028H80.8977V72.461L81.855 72.5019L81.8977 71.5028ZM97.4517 76.1903L96.9384 77.0486L96.9421 77.0508L97.4517 76.1903ZM109.312 88.3352L108.448 88.8381L108.45 88.8416L109.312 88.3352ZM108.105 127.469L107.26 126.934L107.259 126.936L108.105 127.469ZM91.2727 141.744L90.8464 140.84L90.8464 140.84L91.2727 141.744ZM32.3949 121.858H31.3949V122.858H32.3949V121.858ZM76.2159 116.957L76.8552 117.726L76.8606 117.722L76.2159 116.957ZM79.1989 93.0938L78.3531 93.6273L78.3531 93.6273L79.1989 93.0938ZM70.8892 85.8494L70.4468 86.7462L70.4515 86.7485L70.8892 85.8494ZM32.3949 83.2216V82.2216H31.3949V83.2216H32.3949ZM32.3949 62.4119H31.3949V63.4119H32.3949V62.4119ZM66.4148 60.2102L66.8246 61.1224L66.8305 61.1197L66.4148 60.2102ZM74.2273 53.8182L73.4106 53.2409L73.4041 53.2504L74.2273 53.8182ZM71.5284 31.233L70.8713 31.9867L70.876 31.9909L71.5284 31.233ZM32.3949 26.4034V25.4034H31.3949V26.4034H32.3949ZM1.64205 147H2.64205V1.54545H1.64205H0.642045V147H1.64205ZM1.64205 1.54545V2.54545H59.8807V1.54545V0.54545H1.64205V1.54545ZM59.8807 1.54545V2.54545C70.4901 2.54545 79.2666 4.11913 86.2507 7.21804L86.6562 6.30398L87.0618 5.38991C79.7467 2.14412 70.6728 0.54545 59.8807 0.54545V1.54545ZM86.6562 6.30398L86.2507 7.21804C93.252 10.3246 98.4598 14.61 101.936 20.0524L102.778 19.5142L103.621 18.976C99.9001 13.1494 94.3597 8.62806 87.0618 5.38991L86.6562 6.30398ZM102.778 19.5142L101.938 20.0557C105.422 25.4658 107.176 31.7134 107.176 38.8324H108.176H109.176C109.176 31.3681 107.332 24.7369 103.619 18.9727L102.778 19.5142ZM108.176 38.8324H107.176C107.176 44.3787 106.068 49.2089 103.883 53.3516L104.767 53.8182L105.652 54.2847C108.012 49.81 109.176 44.6497 109.176 38.8324H108.176ZM104.767 53.8182L103.885 53.3476C101.687 57.468 98.6699 60.851 94.8239 63.5066L95.392 64.3295L95.9602 65.1524C100.069 62.3156 103.302 58.6911 105.649 54.2888L104.767 53.8182ZM95.392 64.3295L94.8259 63.5052C91.0101 66.1257 86.632 67.9957 81.6789 69.1066L81.8977 70.0824L82.1166 71.0581C87.2961 69.8964 91.9142 67.9311 95.9582 65.1539L95.392 64.3295ZM81.8977 70.0824H80.8977V71.5028H81.8977H82.8977V70.0824H81.8977ZM81.8977 71.5028L81.855 72.5019C87.2261 72.7315 92.2494 74.2443 96.9385 77.0486L97.4517 76.1903L97.965 75.3321C92.9949 72.3598 87.6489 70.7477 81.9404 70.5037L81.8977 71.5028ZM97.4517 76.1903L96.9421 77.0508C101.663 79.8466 105.498 83.7677 108.448 88.8381L109.312 88.3352L110.177 87.8323C107.066 82.4861 102.994 78.3106 97.9613 75.3299L97.4517 76.1903ZM109.312 88.3352L108.45 88.8416C111.374 93.8216 112.858 99.7948 112.858 106.801H113.858H114.858C114.858 99.5083 113.311 93.1708 110.175 87.8289L109.312 88.3352ZM113.858 106.801H112.858C112.858 114.345 110.986 121.046 107.26 126.934L108.105 127.469L108.95 128.003C112.894 121.771 114.858 114.693 114.858 106.801H113.858ZM108.105 127.469L107.259 126.936C103.588 132.764 98.1352 137.404 90.8464 140.84L91.2727 141.744L91.6991 142.649C99.2777 139.077 105.047 134.2 108.951 128.002L108.105 127.469ZM91.2727 141.744L90.8464 140.84C83.582 144.264 74.5754 146 63.7869 146V147V148C74.7788 148 84.0961 146.232 91.6991 142.649L91.2727 141.744ZM63.7869 147V146H1.64205V147V148H63.7869V147ZM32.3949 121.858V122.858H57.4659V121.858V120.858H32.3949V121.858ZM57.4659 121.858V122.858C66.1242 122.858 72.659 121.215 76.8552 117.726L76.2159 116.957L75.5766 116.188C71.913 119.234 65.9478 120.858 57.4659 120.858V121.858ZM76.2159 116.957L76.8606 117.722C81.0328 114.203 83.1108 109.511 83.1108 103.747H82.1108H81.1108C81.1108 108.968 79.2589 113.083 75.5712 116.193L76.2159 116.957ZM82.1108 103.747H83.1108C83.1108 99.5544 82.0972 95.8143 80.0447 92.5602L79.1989 93.0938L78.3531 93.6273C80.1831 96.5285 81.1108 99.8907 81.1108 103.747H82.1108ZM79.1989 93.0938L80.0447 92.5602C77.9943 89.3096 75.0755 86.7753 71.3269 84.9503L70.8892 85.8494L70.4515 86.7485C73.8999 88.4273 76.5209 90.7226 78.3531 93.6273L79.1989 93.0938ZM70.8892 85.8494L71.3316 84.9526C67.6135 83.1183 63.2173 82.2216 58.1761 82.2216V83.2216V84.2216C62.9835 84.2216 67.0626 85.0767 70.4468 86.7462L70.8892 85.8494ZM58.1761 83.2216V82.2216H32.3949V83.2216V84.2216H58.1761V83.2216ZM32.3949 83.2216H31.3949V121.858H32.3949H33.3949V83.2216H32.3949ZM32.3949 62.4119V63.4119H55.1932V62.4119V61.4119H32.3949V62.4119ZM55.1932 62.4119V63.4119C59.5238 63.4119 63.4079 62.6574 66.8246 61.1224L66.4148 60.2102L66.005 59.2981C62.8875 60.6986 59.2906 61.4119 55.1932 61.4119V62.4119ZM66.4148 60.2102L66.8305 61.1197C70.2934 59.5367 73.0447 57.2943 75.0505 54.3859L74.2273 53.8182L73.4041 53.2504C71.622 55.8345 69.1649 57.8535 65.999 59.3008L66.4148 60.2102ZM74.2273 53.8182L75.0439 54.3954C77.1208 51.4574 78.1392 47.9579 78.1392 43.946H77.1392H76.1392C76.1392 47.6046 75.2164 50.6866 73.4107 53.2409L74.2273 53.8182ZM77.1392 43.946H78.1392C78.1392 38.4206 76.1578 33.8983 72.1808 30.4751L71.5284 31.233L70.876 31.9909C74.3801 35.007 76.1392 38.9601 76.1392 43.946H77.1392ZM71.5284 31.233L72.1855 30.4792C68.2499 27.0481 62.7268 25.4034 55.7614 25.4034V26.4034V27.4034C62.4323 27.4034 67.4205 28.9784 70.8713 31.9867L71.5284 31.233ZM55.7614 26.4034V25.4034H32.3949V26.4034V27.4034H55.7614V26.4034ZM32.3949 26.4034H31.3949V62.4119H32.3949H33.3949V26.4034H32.3949ZM133.869 147H132.869V148H133.869V147ZM133.869 1.54545V0.54545H132.869V1.54545H133.869ZM219.38 7.44034L218.928 8.3326L218.935 8.33585L219.38 7.44034ZM237.207 23.9886L236.338 24.4836L236.342 24.4904L237.207 23.9886ZM237.136 73.9886L237.992 74.5049L237.994 74.5023L237.136 73.9886ZM219.025 89.8977L218.602 88.9917L218.6 88.9927L219.025 89.8977ZM152.05 95.4375H151.05V96.4375H152.05V95.4375ZM152.05 70.7216V69.7216H151.05V70.7216H152.05ZM200.133 68.3068L200.516 69.2306L200.516 69.2306L200.133 68.3068ZM208.798 61.0625L207.941 60.5461L207.936 60.5555L208.798 61.0625ZM208.798 36.8438L207.929 37.3399L207.935 37.3492L208.798 36.8438ZM200.062 29.3153L199.651 30.2268L199.657 30.2298L199.664 30.2328L200.062 29.3153ZM164.621 26.6875V25.6875H163.621V26.6875H164.621ZM164.621 147V148H165.621V147H164.621ZM212.42 80.8068L213.297 80.3275L213.013 79.8068H212.42V80.8068ZM248.57 147V148H250.256L249.448 146.521L248.57 147ZM214.621 147L213.739 147.471L214.022 148H214.621V147ZM179.252 80.8068V79.8068H177.584L178.37 81.2781L179.252 80.8068ZM133.869 147H134.869V1.54545H133.869H132.869V147H133.869ZM133.869 1.54545V2.54545H191.255V1.54545V0.54545H133.869V1.54545ZM191.255 1.54545V2.54545C202.123 2.54545 211.335 4.48962 218.928 8.33258L219.38 7.44034L219.832 6.5481C211.895 2.5312 202.357 0.54545 191.255 0.54545V1.54545ZM219.38 7.44034L218.935 8.33585C226.581 12.1356 232.37 17.5173 236.338 24.4835L237.207 23.9886L238.076 23.4937C233.899 16.1608 227.804 10.5102 219.825 6.54483L219.38 7.44034ZM237.207 23.9886L236.342 24.4904C240.358 31.4159 242.386 39.5938 242.386 49.0597H243.386H244.386C244.386 39.302 242.294 30.7659 238.072 23.4869L237.207 23.9886ZM243.386 49.0597H242.386C242.386 58.5726 240.335 66.6973 236.278 73.475L237.136 73.9886L237.994 74.5023C242.27 67.3595 244.386 58.8649 244.386 49.0597H243.386ZM237.136 73.9886L236.279 73.4724C232.223 80.2013 226.344 85.3754 218.602 88.9917L219.025 89.8977L219.448 90.8038C227.52 87.0337 233.715 81.6017 237.992 74.5049L237.136 73.9886ZM219.025 89.8977L218.6 88.9927C210.905 92.6081 201.542 94.4375 190.474 94.4375V95.4375V96.4375C201.754 96.4375 211.425 94.5737 219.45 90.8028L219.025 89.8977ZM190.474 95.4375V94.4375H152.05V95.4375V96.4375H190.474V95.4375ZM152.05 95.4375H153.05V70.7216H152.05H151.05V95.4375H152.05ZM152.05 70.7216V71.7216H185.502V70.7216V69.7216H152.05V70.7216ZM185.502 70.7216V71.7216C191.456 71.7216 196.474 70.9065 200.516 69.2306L200.133 68.3068L199.75 67.3831C196.027 68.9268 191.29 69.7216 185.502 69.7216V70.7216ZM200.133 68.3068L200.516 69.2306C204.573 67.5484 207.642 64.9996 209.66 61.5695L208.798 61.0625L207.936 60.5555C206.165 63.5647 203.458 65.8455 199.75 67.3831L200.133 68.3068ZM208.798 61.0625L209.654 61.5788C211.712 58.1662 212.71 53.975 212.71 49.0597H211.71H210.71C210.71 53.7087 209.766 57.5194 207.941 60.5462L208.798 61.0625ZM211.71 49.0597H212.71C212.71 44.0976 211.712 39.8408 209.66 36.3383L208.798 36.8438L207.935 37.3492C209.766 40.4755 210.71 44.3626 210.71 49.0597H211.71ZM208.798 36.8438L209.666 36.3476C207.652 32.823 204.562 30.1774 200.46 28.3979L200.062 29.3153L199.664 30.2328C203.421 31.8624 206.156 34.2357 207.929 37.3399L208.798 36.8438ZM200.062 29.3153L200.473 28.4038C196.421 26.5756 191.369 25.6875 185.36 25.6875V26.6875V27.6875C191.189 27.6875 195.937 28.5513 199.651 30.2268L200.062 29.3153ZM185.36 26.6875V25.6875H164.621V26.6875V27.6875H185.36V26.6875ZM164.621 26.6875H163.621V147H164.621H165.621V26.6875H164.621ZM164.621 147V146H133.869V147V148H164.621V147ZM212.42 80.8068L211.542 81.2861L247.693 147.479L248.57 147L249.448 146.521L213.297 80.3275L212.42 80.8068ZM248.57 147V146H214.621V147V148H248.57V147ZM214.621 147L215.503 146.529L180.134 80.3355L179.252 80.8068L178.37 81.2781L213.739 147.471L214.621 147ZM179.252 80.8068V81.8068H212.42V80.8068V79.8068H179.252V80.8068ZM265.119 147H264.119V148H265.119V147ZM265.119 1.54545V0.54545H264.119V1.54545H265.119ZM363.13 1.54545H364.13V0.54545H363.13V1.54545ZM363.13 26.9006V27.9006H364.13V26.9006H363.13ZM295.871 26.9006V25.9006H294.871V26.9006H295.871ZM295.871 61.5597H294.871V62.5597H295.871V61.5597ZM358.087 61.5597H359.087V60.5597H358.087V61.5597ZM358.087 86.9148V87.9148H359.087V86.9148H358.087ZM295.871 86.9148V85.9148H294.871V86.9148H295.871ZM295.871 121.645H294.871V122.645H295.871V121.645ZM363.414 121.645H364.414V120.645H363.414V121.645ZM363.414 147V148H364.414V147H363.414ZM265.119 147H266.119V1.54545H265.119H264.119V147H265.119ZM265.119 1.54545V2.54545H363.13V1.54545V0.54545H265.119V1.54545ZM363.13 1.54545H362.13V26.9006H363.13H364.13V1.54545H363.13ZM363.13 26.9006V25.9006H295.871V26.9006V27.9006H363.13V26.9006ZM295.871 26.9006H294.871V61.5597H295.871H296.871V26.9006H295.871ZM295.871 61.5597V62.5597H358.087V61.5597V60.5597H295.871V61.5597ZM358.087 61.5597H357.087V86.9148H358.087H359.087V61.5597H358.087ZM358.087 86.9148V85.9148H295.871V86.9148V87.9148H358.087V86.9148ZM295.871 86.9148H294.871V121.645H295.871H296.871V86.9148H295.871ZM295.871 121.645V122.645H363.414V121.645V120.645H295.871V121.645ZM363.414 121.645H362.414V147H363.414H364.414V121.645H363.414ZM363.414 147V146H265.119V147V148H363.414V147ZM412.651 147V148H413.377L413.602 147.309L412.651 147ZM379.696 147L378.751 146.674L378.293 148H379.696V147ZM429.909 1.54545V0.54545H429.196L428.964 1.21913L429.909 1.54545ZM469.54 1.54545L470.485 1.21954L470.253 0.54545H469.54V1.54545ZM519.682 147V148H521.084L520.627 146.674L519.682 147ZM486.727 147L485.776 147.309L486.001 148H486.727V147ZM450.293 34.7841L451.244 34.4753L451.019 33.7841H450.293V34.7841ZM449.156 34.7841V33.7841H448.43L448.205 34.4747L449.156 34.7841ZM410.591 89.8267V88.8267H409.591V89.8267H410.591ZM488.432 89.8267H489.432V88.8267H488.432V89.8267ZM488.432 113.832V114.832H489.432V113.832H488.432ZM410.591 113.832H409.591V114.832H410.591V113.832ZM412.651 147V146H379.696V147V148H412.651V147ZM379.696 147L380.641 147.326L430.854 1.87177L429.909 1.54545L428.964 1.21913L378.751 146.674L379.696 147ZM429.909 1.54545V2.54545H469.54V1.54545V0.54545H429.909V1.54545ZM469.54 1.54545L468.594 1.87136L518.736 147.326L519.682 147L520.627 146.674L470.485 1.21954L469.54 1.54545ZM519.682 147V146H486.727V147V148H519.682V147ZM486.727 147L487.678 146.691L451.244 34.4753L450.293 34.7841L449.341 35.0929L485.776 147.309L486.727 147ZM450.293 34.7841V33.7841H449.156V34.7841V35.7841H450.293V34.7841ZM449.156 34.7841L448.205 34.4747L411.7 146.691L412.651 147L413.602 147.309L450.107 35.0934L449.156 34.7841ZM410.591 89.8267V90.8267H488.432V89.8267V88.8267H410.591V89.8267ZM488.432 89.8267H487.432V113.832H488.432H489.432V89.8267H488.432ZM488.432 113.832V112.832H410.591V113.832V114.832H488.432V113.832ZM410.591 113.832H411.591V89.8267H410.591H409.591V113.832H410.591ZM537.189 147H536.189V148H537.189V147ZM537.189 1.54545V0.54545H536.189V1.54545H537.189ZM567.942 1.54545H568.942V0.54545H567.942V1.54545ZM567.942 65.679H566.942V66.679H567.942V65.679ZM569.859 65.679V66.679H570.334L570.634 66.3113L569.859 65.679ZM622.203 1.54545V0.54545H621.729L621.428 0.913147L622.203 1.54545ZM659.064 1.54545L659.834 2.18357L661.192 0.54545H659.064V1.54545ZM605.087 66.6733L604.317 66.0352L603.837 66.6139L604.26 67.2356L605.087 66.6733ZM659.703 147V148H661.592L660.53 146.438L659.703 147ZM622.913 147L622.081 147.554L622.378 148H622.913V147ZM583.07 87.1989L583.902 86.6444L583.152 85.5197L582.296 86.5651L583.07 87.1989ZM567.942 105.665L567.168 105.031L566.942 105.307V105.665H567.942ZM567.942 147V148H568.942V147H567.942ZM537.189 147H538.189V1.54545H537.189H536.189V147H537.189ZM537.189 1.54545V2.54545H567.942V1.54545V0.54545H537.189V1.54545ZM567.942 1.54545H566.942V65.679H567.942H568.942V1.54545H567.942ZM567.942 65.679V66.679H569.859V65.679V64.679H567.942V65.679ZM569.859 65.679L570.634 66.3113L622.978 2.17775L622.203 1.54545L621.428 0.913147L569.085 65.0467L569.859 65.679ZM622.203 1.54545V2.54545H659.064V1.54545V0.54545H622.203V1.54545ZM659.064 1.54545L658.294 0.907333L604.317 66.0352L605.087 66.6733L605.857 67.3114L659.834 2.18357L659.064 1.54545ZM605.087 66.6733L604.26 67.2356L658.876 147.562L659.703 147L660.53 146.438L605.914 66.111L605.087 66.6733ZM659.703 147V146H622.913V147V148H659.703V147ZM622.913 147L623.746 146.446L583.902 86.6444L583.07 87.1989L582.237 87.7533L622.081 147.554L622.913 147ZM583.07 87.1989L582.296 86.5651L567.168 105.031L567.942 105.665L568.715 106.298L583.843 87.8326L583.07 87.1989ZM567.942 105.665H566.942V147H567.942H568.942V105.665H567.942ZM567.942 147V146H537.189V147V148H567.942V147ZM675.08 147H674.08V148H675.08V147ZM675.08 1.54545V0.54545H674.08V1.54545H675.08ZM773.091 1.54545H774.091V0.54545H773.091V1.54545ZM773.091 26.9006V27.9006H774.091V26.9006H773.091ZM705.832 26.9006V25.9006H704.832V26.9006H705.832ZM705.832 61.5597H704.832V62.5597H705.832V61.5597ZM768.048 61.5597H769.048V60.5597H768.048V61.5597ZM768.048 86.9148V87.9148H769.048V86.9148H768.048ZM705.832 86.9148V85.9148H704.832V86.9148H705.832ZM705.832 121.645H704.832V122.645H705.832V121.645ZM773.375 121.645H774.375V120.645H773.375V121.645ZM773.375 147V148H774.375V147H773.375ZM675.08 147H676.08V1.54545H675.08H674.08V147H675.08ZM675.08 1.54545V2.54545H773.091V1.54545V0.54545H675.08V1.54545ZM773.091 1.54545H772.091V26.9006H773.091H774.091V1.54545H773.091ZM773.091 26.9006V25.9006H705.832V26.9006V27.9006H773.091V26.9006ZM705.832 26.9006H704.832V61.5597H705.832H706.832V26.9006H705.832ZM705.832 61.5597V62.5597H768.048V61.5597V60.5597H705.832V61.5597ZM768.048 61.5597H767.048V86.9148H768.048H769.048V61.5597H768.048ZM768.048 86.9148V85.9148H705.832V86.9148V87.9148H768.048V86.9148ZM705.832 86.9148H704.832V121.645H705.832H706.832V86.9148H705.832ZM705.832 121.645V122.645H773.375V121.645V120.645H705.832V121.645ZM773.375 121.645H772.375V147H773.375H774.375V121.645H773.375ZM773.375 147V146H675.08V147V148H773.375V147ZM797.54 147H796.54V148H797.54V147ZM797.54 1.54545V0.54545H796.54V1.54545H797.54ZM883.052 7.44034L882.6 8.3326L882.607 8.33585L883.052 7.44034ZM900.879 23.9886L900.01 24.4836L900.014 24.4904L900.879 23.9886ZM900.808 73.9886L901.664 74.5049L901.666 74.5023L900.808 73.9886ZM882.697 89.8977L882.274 88.9917L882.271 88.9927L882.697 89.8977ZM815.722 95.4375H814.722V96.4375H815.722V95.4375ZM815.722 70.7216V69.7216H814.722V70.7216H815.722ZM863.805 68.3068L864.188 69.2306L864.188 69.2306L863.805 68.3068ZM872.469 61.0625L871.613 60.5461L871.608 60.5555L872.469 61.0625ZM872.469 36.8438L871.601 37.3399L871.607 37.3492L872.469 36.8438ZM863.734 29.3153L863.322 30.2268L863.329 30.2298L863.336 30.2328L863.734 29.3153ZM828.293 26.6875V25.6875H827.293V26.6875H828.293ZM828.293 147V148H829.293V147H828.293ZM876.092 80.8068L876.969 80.3275L876.685 79.8068H876.092V80.8068ZM912.242 147V148H913.928L913.12 146.521L912.242 147ZM878.293 147L877.411 147.471L877.694 148H878.293V147ZM842.924 80.8068V79.8068H841.256L842.042 81.2781L842.924 80.8068ZM797.54 147H798.54V1.54545H797.54H796.54V147H797.54ZM797.54 1.54545V2.54545H854.927V1.54545V0.54545H797.54V1.54545ZM854.927 1.54545V2.54545C865.795 2.54545 875.007 4.48962 882.6 8.33258L883.052 7.44034L883.503 6.5481C875.566 2.5312 866.028 0.54545 854.927 0.54545V1.54545ZM883.052 7.44034L882.607 8.33585C890.253 12.1356 896.042 17.5173 900.01 24.4835L900.879 23.9886L901.748 23.4937C897.571 16.1608 891.476 10.5102 883.497 6.54483L883.052 7.44034ZM900.879 23.9886L900.014 24.4904C904.03 31.4159 906.058 39.5938 906.058 49.0597H907.058H908.058C908.058 39.302 905.965 30.7659 901.744 23.4869L900.879 23.9886ZM907.058 49.0597H906.058C906.058 58.5726 904.007 66.6973 899.95 73.475L900.808 73.9886L901.666 74.5023C905.941 67.3595 908.058 58.8649 908.058 49.0597H907.058ZM900.808 73.9886L899.951 73.4724C895.895 80.2013 890.016 85.3754 882.274 88.9917L882.697 89.8977L883.12 90.8038C891.192 87.0337 897.386 81.6017 901.664 74.5049L900.808 73.9886ZM882.697 89.8977L882.271 88.9927C874.577 92.6081 865.213 94.4375 854.146 94.4375V95.4375V96.4375C865.426 96.4375 875.097 94.5737 883.122 90.8028L882.697 89.8977ZM854.146 95.4375V94.4375H815.722V95.4375V96.4375H854.146V95.4375ZM815.722 95.4375H816.722V70.7216H815.722H814.722V95.4375H815.722ZM815.722 70.7216V71.7216H849.174V70.7216V69.7216H815.722V70.7216ZM849.174 70.7216V71.7216C855.128 71.7216 860.146 70.9065 864.188 69.2306L863.805 68.3068L863.422 67.3831C859.698 68.9268 854.962 69.7216 849.174 69.7216V70.7216ZM863.805 68.3068L864.188 69.2306C868.245 67.5484 871.314 64.9996 873.331 61.5695L872.469 61.0625L871.608 60.5555C869.837 63.5647 867.13 65.8455 863.422 67.3831L863.805 68.3068ZM872.469 61.0625L873.326 61.5788C875.383 58.1662 876.381 53.975 876.381 49.0597H875.381H874.381C874.381 53.7087 873.438 57.5194 871.613 60.5462L872.469 61.0625ZM875.381 49.0597H876.381C876.381 44.0976 875.384 39.8408 873.332 36.3383L872.469 36.8438L871.607 37.3492C873.438 40.4755 874.381 44.3626 874.381 49.0597H875.381ZM872.469 36.8438L873.338 36.3476C871.324 32.823 868.234 30.1774 864.132 28.3979L863.734 29.3153L863.336 30.2328C867.093 31.8624 869.827 34.2357 871.601 37.3399L872.469 36.8438ZM863.734 29.3153L864.145 28.4038C860.093 26.5756 855.041 25.6875 849.032 25.6875V26.6875V27.6875C854.86 27.6875 859.609 28.5513 863.322 30.2268L863.734 29.3153ZM849.032 26.6875V25.6875H828.293V26.6875V27.6875H849.032V26.6875ZM828.293 26.6875H827.293V147H828.293H829.293V26.6875H828.293ZM828.293 147V146H797.54V147V148H828.293V147ZM876.092 80.8068L875.214 81.2861L911.365 147.479L912.242 147L913.12 146.521L876.969 80.3275L876.092 80.8068ZM912.242 147V146H878.293V147V148H912.242V147ZM878.293 147L879.175 146.529L843.806 80.3355L842.924 80.8068L842.042 81.2781L877.411 147.471L878.293 147ZM842.924 80.8068V81.8068H876.092V80.8068V79.8068H842.924V80.8068Z" fill="white" mask="url(#path-1-outside-1_95_70)"/>
<defs>
<linearGradient id="paint0_linear_95_70" x1="453.576" y1="147" x2="453.576" y2="-47" gradientUnits="userSpaceOnUse">
<stop stop-color="#007AD7"/>
<stop offset="0.210342" stop-color="#E5E5E5"/>
<stop offset="0.426822" stop-color="#E1E0E0"/>
<stop offset="0.723181" stop-color="#007AD7"/>
</linearGradient>
</defs>
</svg>
