<svg width="555" height="151" viewBox="0 0 555 151" fill="none" xmlns="http://www.w3.org/2000/svg">
<mask id="path-1-outside-1_95_69" maskUnits="userSpaceOnUse" x="0" y="0" width="555" height="151" fill="black">
<rect fill="white" width="555" height="151"/>
<path d="M1.64205 147V1.54545H32.3949V121.645H94.7528V147H1.64205ZM204.962 1.54545H235.715V96.0057C235.715 106.612 233.182 115.892 228.116 123.847C223.097 131.801 216.066 138.004 207.022 142.455C197.978 146.858 187.443 149.06 175.417 149.06C163.343 149.06 152.784 146.858 143.741 142.455C134.697 138.004 127.666 131.801 122.647 123.847C117.628 115.892 115.119 106.612 115.119 96.0057V1.54545H145.871V93.3778C145.871 98.9176 147.079 103.842 149.494 108.151C151.956 112.459 155.412 115.845 159.863 118.307C164.314 120.769 169.498 122 175.417 122C181.383 122 186.567 120.769 190.971 118.307C195.422 115.845 198.854 112.459 201.269 108.151C203.731 103.842 204.962 98.9176 204.962 93.3778V1.54545ZM261.017 1.54545H298.943L339 99.2727H340.705L380.761 1.54545H418.688V147H388.858V52.3267H387.651L350.009 146.29H329.696L292.054 51.9716H290.847V147H261.017V1.54545ZM444.025 147V1.54545H501.411C512.443 1.54545 521.842 3.65246 529.607 7.86648C537.372 12.0331 543.291 17.8333 547.363 25.267C551.482 32.6534 553.542 41.1761 553.542 50.8352C553.542 60.4943 551.459 69.017 547.292 76.4034C543.125 83.7898 537.088 89.5426 529.181 93.6619C521.321 97.7812 511.804 99.8409 500.63 99.8409H464.053V75.196H495.658C501.577 75.196 506.454 74.178 510.289 72.142C514.172 70.0587 517.06 67.1941 518.954 63.5483C520.895 59.8551 521.866 55.6174 521.866 50.8352C521.866 46.0057 520.895 41.7917 518.954 38.1932C517.06 34.5473 514.172 31.7301 510.289 29.7415C506.406 27.7055 501.482 26.6875 495.516 26.6875H474.778V147H444.025Z"/>
</mask>
<path d="M1.64205 147V1.54545H32.3949V121.645H94.7528V147H1.64205ZM204.962 1.54545H235.715V96.0057C235.715 106.612 233.182 115.892 228.116 123.847C223.097 131.801 216.066 138.004 207.022 142.455C197.978 146.858 187.443 149.06 175.417 149.06C163.343 149.06 152.784 146.858 143.741 142.455C134.697 138.004 127.666 131.801 122.647 123.847C117.628 115.892 115.119 106.612 115.119 96.0057V1.54545H145.871V93.3778C145.871 98.9176 147.079 103.842 149.494 108.151C151.956 112.459 155.412 115.845 159.863 118.307C164.314 120.769 169.498 122 175.417 122C181.383 122 186.567 120.769 190.971 118.307C195.422 115.845 198.854 112.459 201.269 108.151C203.731 103.842 204.962 98.9176 204.962 93.3778V1.54545ZM261.017 1.54545H298.943L339 99.2727H340.705L380.761 1.54545H418.688V147H388.858V52.3267H387.651L350.009 146.29H329.696L292.054 51.9716H290.847V147H261.017V1.54545ZM444.025 147V1.54545H501.411C512.443 1.54545 521.842 3.65246 529.607 7.86648C537.372 12.0331 543.291 17.8333 547.363 25.267C551.482 32.6534 553.542 41.1761 553.542 50.8352C553.542 60.4943 551.459 69.017 547.292 76.4034C543.125 83.7898 537.088 89.5426 529.181 93.6619C521.321 97.7812 511.804 99.8409 500.63 99.8409H464.053V75.196H495.658C501.577 75.196 506.454 74.178 510.289 72.142C514.172 70.0587 517.06 67.1941 518.954 63.5483C520.895 59.8551 521.866 55.6174 521.866 50.8352C521.866 46.0057 520.895 41.7917 518.954 38.1932C517.06 34.5473 514.172 31.7301 510.289 29.7415C506.406 27.7055 501.482 26.6875 495.516 26.6875H474.778V147H444.025Z" fill="url(#paint0_linear_95_69)"/>
<path d="M1.64205 147H0.642045V148H1.64205V147ZM1.64205 1.54545V0.54545H0.642045V1.54545H1.64205ZM32.3949 1.54545H33.3949V0.54545H32.3949V1.54545ZM32.3949 121.645H31.3949V122.645H32.3949V121.645ZM94.7528 121.645H95.7528V120.645H94.7528V121.645ZM94.7528 147V148H95.7528V147H94.7528ZM1.64205 147H2.64205V1.54545H1.64205H0.642045V147H1.64205ZM1.64205 1.54545V2.54545H32.3949V1.54545V0.54545H1.64205V1.54545ZM32.3949 1.54545H31.3949V121.645H32.3949H33.3949V1.54545H32.3949ZM32.3949 121.645V122.645H94.7528V121.645V120.645H32.3949V121.645ZM94.7528 121.645H93.7528V147H94.7528H95.7528V121.645H94.7528ZM94.7528 147V146H1.64205V147V148H94.7528V147ZM204.962 1.54545V0.54545H203.962V1.54545H204.962ZM235.715 1.54545H236.715V0.54545H235.715V1.54545ZM228.116 123.847L227.272 123.309L227.27 123.313L228.116 123.847ZM207.022 142.455L207.46 143.354L207.464 143.352L207.022 142.455ZM143.741 142.455L143.299 143.352L143.303 143.354L143.741 142.455ZM122.647 123.847L121.801 124.38L121.801 124.38L122.647 123.847ZM115.119 1.54545V0.54545H114.119V1.54545H115.119ZM145.871 1.54545H146.871V0.54545H145.871V1.54545ZM149.494 108.151L148.621 108.639L148.625 108.647L149.494 108.151ZM159.863 118.307L159.379 119.182L159.379 119.182L159.863 118.307ZM190.971 118.307L190.487 117.432L190.483 117.434L190.971 118.307ZM201.269 108.151L200.401 107.654L200.397 107.662L201.269 108.151ZM204.962 1.54545V2.54545H235.715V1.54545V0.54545H204.962V1.54545ZM235.715 1.54545H234.715V96.0057H235.715H236.715V1.54545H235.715ZM235.715 96.0057H234.715C234.715 106.446 232.224 115.535 227.272 123.309L228.116 123.847L228.959 124.384C234.14 116.249 236.715 106.778 236.715 96.0057H235.715ZM228.116 123.847L227.27 123.313C222.357 131.1 215.471 137.182 206.58 141.557L207.022 142.455L207.464 143.352C216.661 138.826 223.837 132.502 228.962 124.38L228.116 123.847ZM207.022 142.455L206.584 141.555C197.701 145.881 187.321 148.06 175.417 148.06V149.06V150.06C187.566 150.06 198.256 147.835 207.46 143.354L207.022 142.455ZM175.417 149.06V148.06C163.465 148.06 153.061 145.88 144.179 141.555L143.741 142.455L143.303 143.354C152.508 147.835 163.221 150.06 175.417 150.06V149.06ZM143.741 142.455L144.182 141.557C135.292 137.182 128.406 131.1 123.493 123.313L122.647 123.847L121.801 124.38C126.926 132.502 134.102 138.826 143.299 143.352L143.741 142.455ZM122.647 123.847L123.493 123.313C118.587 115.538 116.119 106.448 116.119 96.0057H115.119H114.119C114.119 106.776 116.669 116.246 121.801 124.38L122.647 123.847ZM115.119 96.0057H116.119V1.54545H115.119H114.119V96.0057H115.119ZM115.119 1.54545V2.54545H145.871V1.54545V0.54545H115.119V1.54545ZM145.871 1.54545H144.871V93.3778H145.871H146.871V1.54545H145.871ZM145.871 93.3778H144.871C144.871 99.0676 146.113 104.164 148.621 108.639L149.494 108.151L150.366 107.662C148.045 103.52 146.871 98.7676 146.871 93.3778H145.871ZM149.494 108.151L148.625 108.647C151.181 113.119 154.772 116.633 159.379 119.182L159.863 118.307L160.347 117.432C156.052 115.056 152.731 111.8 150.362 107.654L149.494 108.151ZM159.863 118.307L159.379 119.182C164 121.738 169.357 123 175.417 123V122V121C169.64 121 164.627 119.799 160.347 117.432L159.863 118.307ZM175.417 122V123C181.522 123 186.881 121.739 191.459 119.18L190.971 118.307L190.483 117.434C186.254 119.799 181.243 121 175.417 121V122ZM190.971 118.307L191.455 119.182C196.063 116.632 199.633 113.116 202.142 108.639L201.269 108.151L200.397 107.662C198.076 111.803 194.78 115.057 190.487 117.432L190.971 118.307ZM201.269 108.151L202.137 108.647C204.696 104.17 205.962 99.071 205.962 93.3778H204.962H203.962C203.962 98.7643 202.767 103.514 200.401 107.654L201.269 108.151ZM204.962 93.3778H205.962V1.54545H204.962H203.962V93.3778H204.962ZM261.017 1.54545V0.54545H260.017V1.54545H261.017ZM298.943 1.54545L299.868 1.16619L299.614 0.54545H298.943V1.54545ZM339 99.2727L338.075 99.652L338.329 100.273H339V99.2727ZM340.705 99.2727V100.273H341.375L341.63 99.652L340.705 99.2727ZM380.761 1.54545V0.54545H380.091L379.836 1.16619L380.761 1.54545ZM418.688 1.54545H419.688V0.54545H418.688V1.54545ZM418.688 147V148H419.688V147H418.688ZM388.858 147H387.858V148H388.858V147ZM388.858 52.3267H389.858V51.3267H388.858V52.3267ZM387.651 52.3267V51.3267H386.974L386.722 51.9548L387.651 52.3267ZM350.009 146.29V147.29H350.685L350.937 146.662L350.009 146.29ZM329.696 146.29L328.767 146.66L329.018 147.29H329.696V146.29ZM292.054 51.9716L292.983 51.6009L292.732 50.9716H292.054V51.9716ZM290.847 51.9716V50.9716H289.847V51.9716H290.847ZM290.847 147V148H291.847V147H290.847ZM261.017 147H260.017V148H261.017V147ZM261.017 1.54545V2.54545H298.943V1.54545V0.54545H261.017V1.54545ZM298.943 1.54545L298.018 1.92471L338.075 99.652L339 99.2727L339.925 98.8935L299.868 1.16619L298.943 1.54545ZM339 99.2727V100.273H340.705V99.2727V98.2727H339V99.2727ZM340.705 99.2727L341.63 99.652L381.687 1.92471L380.761 1.54545L379.836 1.16619L339.779 98.8935L340.705 99.2727ZM380.761 1.54545V2.54545H418.688V1.54545V0.54545H380.761V1.54545ZM418.688 1.54545H417.688V147H418.688H419.688V1.54545H418.688ZM418.688 147V146H388.858V147V148H418.688V147ZM388.858 147H389.858V52.3267H388.858H387.858V147H388.858ZM388.858 52.3267V51.3267H387.651V52.3267V53.3267H388.858V52.3267ZM387.651 52.3267L386.722 51.9548L349.08 145.918L350.009 146.29L350.937 146.662L388.579 52.6986L387.651 52.3267ZM350.009 146.29V145.29H329.696V146.29V147.29H350.009V146.29ZM329.696 146.29L330.625 145.919L292.983 51.6009L292.054 51.9716L291.125 52.3423L328.767 146.66L329.696 146.29ZM292.054 51.9716V50.9716H290.847V51.9716V52.9716H292.054V51.9716ZM290.847 51.9716H289.847V147H290.847H291.847V51.9716H290.847ZM290.847 147V146H261.017V147V148H290.847V147ZM261.017 147H262.017V1.54545H261.017H260.017V147H261.017ZM444.025 147H443.025V148H444.025V147ZM444.025 1.54545V0.54545H443.025V1.54545H444.025ZM529.607 7.86648L529.13 8.7454L529.134 8.74764L529.607 7.86648ZM547.363 25.267L546.486 25.7475L546.49 25.7541L547.363 25.267ZM529.181 93.6619L528.719 92.7751L528.717 92.7762L529.181 93.6619ZM464.053 99.8409H463.053V100.841H464.053V99.8409ZM464.053 75.196V74.196H463.053V75.196H464.053ZM510.289 72.142L510.758 73.0253L510.762 73.0232L510.289 72.142ZM518.954 63.5483L518.069 63.083L518.066 63.0873L518.954 63.5483ZM518.954 38.1932L518.066 38.6542L518.07 38.6611L518.074 38.668L518.954 38.1932ZM510.289 29.7415L509.825 30.6271L509.833 30.6315L510.289 29.7415ZM474.778 26.6875V25.6875H473.778V26.6875H474.778ZM474.778 147V148H475.778V147H474.778ZM444.025 147H445.025V1.54545H444.025H443.025V147H444.025ZM444.025 1.54545V2.54545H501.411V1.54545V0.54545H444.025V1.54545ZM501.411 1.54545V2.54545C512.318 2.54545 521.544 4.62823 529.13 8.74539L529.607 7.86648L530.084 6.98756C522.141 2.67668 512.569 0.54545 501.411 0.54545V1.54545ZM529.607 7.86648L529.134 8.74764C536.736 12.8265 542.511 18.4906 546.486 25.7475L547.363 25.267L548.24 24.7866C544.071 17.176 538.009 11.2397 530.08 6.98531L529.607 7.86648ZM547.363 25.267L546.49 25.7541C550.515 32.9715 552.542 41.3221 552.542 50.8352H553.542H554.542C554.542 41.0302 552.45 32.3353 548.236 24.78L547.363 25.267ZM553.542 50.8352H552.542C552.542 60.3464 550.492 68.6955 546.421 75.9121L547.292 76.4034L548.163 76.8947C552.425 69.3386 554.542 60.6422 554.542 50.8352H553.542ZM547.292 76.4034L546.421 75.9121C542.354 83.1209 536.464 88.7404 528.719 92.7751L529.181 93.6619L529.643 94.5488C537.713 90.3448 543.896 84.4586 548.163 76.8947L547.292 76.4034ZM529.181 93.6619L528.717 92.7762C521.033 96.8035 511.684 98.8409 500.63 98.8409V99.8409V100.841C511.925 100.841 521.61 98.759 529.645 94.5477L529.181 93.6619ZM500.63 99.8409V98.8409H464.053V99.8409V100.841H500.63V99.8409ZM464.053 99.8409H465.053V75.196H464.053H463.053V99.8409H464.053ZM464.053 75.196V76.196H495.658V75.196V74.196H464.053V75.196ZM495.658 75.196V76.196C501.684 76.196 506.735 75.1607 510.758 73.0253L510.289 72.142L509.82 71.2588C506.172 73.1954 501.47 74.196 495.658 74.196V75.196ZM510.289 72.142L510.762 73.0232C514.808 70.852 517.848 67.8468 519.841 64.0093L518.954 63.5483L518.066 63.0873C516.272 66.5414 513.535 69.2654 509.816 71.2609L510.289 72.142ZM518.954 63.5483L519.839 64.0136C521.866 60.1572 522.866 55.7557 522.866 50.8352H521.866H520.866C520.866 55.4792 519.924 59.5531 518.069 63.083L518.954 63.5483ZM521.866 50.8352H522.866C522.866 45.87 521.867 41.4871 519.834 37.7184L518.954 38.1932L518.074 38.668C519.923 42.0962 520.866 46.1414 520.866 50.8352H521.866ZM518.954 38.1932L519.841 37.7322C517.845 33.8903 514.8 30.9286 510.745 28.8514L510.289 29.7415L509.833 30.6315C513.543 32.5316 516.274 35.2044 518.066 38.6542L518.954 38.1932ZM510.289 29.7415L510.753 28.8559C506.685 26.7226 501.588 25.6875 495.516 25.6875V26.6875V27.6875C501.376 27.6875 506.128 28.6884 509.825 30.6271L510.289 29.7415ZM495.516 26.6875V25.6875H474.778V26.6875V27.6875H495.516V26.6875ZM474.778 26.6875H473.778V147H474.778H475.778V26.6875H474.778ZM474.778 147V146H444.025V147V148H474.778V147Z" fill="white" mask="url(#path-1-outside-1_95_69)"/>
<defs>
<linearGradient id="paint0_linear_95_69" x1="275" y1="147" x2="275" y2="-109" gradientUnits="userSpaceOnUse">
<stop stop-color="white"/>
<stop offset="0.311269" stop-color="#007AD7"/>
<stop offset="1" stop-color="#E8E8E8"/>
</linearGradient>
</defs>
</svg>
