<svg width="194" height="91" viewBox="0 0 194 91" fill="none" xmlns="http://www.w3.org/2000/svg">
<path d="M26.3024 76.7712C26.3024 73.3005 26.3024 70.2464 26.3024 67.1922C26.3024 66.2204 26.3024 65.5263 24.9107 65.7345C23.519 65.9428 23.8669 65.2486 23.8669 64.4157C23.8669 58.0297 23.8669 51.6438 23.8669 45.3272C23.9769 44.5035 23.8763 43.6655 23.5745 42.891C23.2726 42.1165 22.7794 41.4307 22.1406 40.8974C21.5018 40.3641 20.7382 40.0005 19.9208 39.8405C19.1033 39.6806 18.2586 39.7294 17.4652 39.9824C16.0735 39.9824 15.3777 40.6072 15.3777 42.2036C15.3777 49.5614 15.3777 56.9191 15.3777 64.2075C15.3777 65.5263 15.3777 65.9428 13.7077 65.8734C10.0893 65.8734 6.74928 65.8734 2.85258 65.8734C1.94798 65.8734 1.66965 65.8734 1.66965 64.6933C1.66965 44.4943 1.66965 24.3646 1.66965 4.16551C1.53048 2.91608 1.94798 2.70784 2.92216 2.70784C10.646 2.70784 18.3698 2.70784 26.024 2.70784C29.031 2.89479 31.9158 3.96268 34.3171 5.77775C36.7184 7.59282 38.5294 10.0744 39.5233 12.9115C40.5164 16.3351 40.8237 19.9202 40.4279 23.4622C40.1753 25.3722 39.5474 27.2137 38.5803 28.8812C37.6131 30.5488 36.3256 32.0096 34.7916 33.18C33.3999 34.2906 33.3999 34.2906 34.7916 35.4706C36.9229 36.9791 38.4899 39.1527 39.245 41.6483C39.795 44.1539 39.9825 46.7251 39.8016 49.2837C40.042 50.5217 40.042 51.7941 39.8016 53.032C39.8016 53.5873 39.8016 54.0732 40.8454 53.7956L44.6029 52.1991C45.5771 51.7826 45.5771 50.7414 45.7163 49.9779C46.5049 45.9519 47.3399 41.926 48.2213 37.9001C48.9867 34.0824 49.613 30.2647 50.3784 26.5164C51.8397 19.1586 53.3705 11.8703 54.9014 4.51257C55.5276 1.45842 55.5972 1.45842 58.7285 1.52783H68.4006C68.5641 1.48668 68.7355 1.48855 68.898 1.53327C69.0605 1.57798 69.2086 1.664 69.3278 1.78292C69.4471 1.90184 69.5333 2.04958 69.5781 2.2117C69.6229 2.37383 69.6248 2.54478 69.5836 2.70784C71.3232 12.6339 73.7586 22.421 75.707 32.347C76.3332 35.3318 77.0986 38.3859 77.5857 41.4401C77.5857 42.8284 78.3511 43.4531 79.882 43.3837C81.4128 43.3142 82.0391 43.3837 82.0391 41.1625C82.0391 30.0564 82.0391 19.0198 82.0391 7.98321V3.81845C82.0391 3.19373 82.0391 2.84667 82.8741 2.84667C87.8146 2.84667 92.755 2.84667 97.6259 2.84667C100.384 3.13253 102.943 4.41042 104.826 6.44153C106.708 8.47264 107.785 11.118 107.855 13.8833C108.354 17.0232 107.893 20.2402 106.533 23.1152C105.747 24.8666 104.466 26.3513 102.847 27.387C101.228 28.4228 99.3406 28.9645 97.4171 28.9458C95.6571 29.0847 93.8888 29.0847 92.1288 28.9458C91.2242 28.9458 90.8067 28.9458 90.8067 30.1258C90.8067 33.8741 90.8067 37.6918 90.8067 41.4401C90.8067 42.4119 90.8067 42.6201 91.9896 42.5507C96.3038 42.2731 100.409 41.6483 104.376 41.6483C108.342 41.6483 111.96 41.6483 115.718 41.6483C122.468 41.7748 129.205 42.2846 135.897 43.1754C145.919 44.497 155.737 47.062 165.122 50.8108C170.11 52.8063 174.907 55.2456 179.457 58.0991C181.614 59.418 183.284 61.3615 185.58 62.4721C185.793 62.5865 185.971 62.757 186.093 62.965C186.216 63.1731 186.279 63.4108 186.276 63.6522C183.492 62.4027 180.918 60.9451 178.065 59.8345C168.677 56.225 158.925 53.6416 148.979 52.1297C133.615 49.6463 118.003 49.0634 102.497 50.3943C89.4659 51.7421 76.5857 54.2746 64.0169 57.9603C54.4975 60.521 45.3175 64.2027 36.6704 68.9275C32.8928 71.0898 29.4085 73.7258 26.3024 76.7712ZM15.5169 21.7269C15.5169 24.2258 15.5169 26.7246 15.5169 29.2235C15.5169 29.8482 15.5169 30.3341 16.3519 30.4035C17.7837 30.4882 19.2154 30.2373 20.5325 29.6707C21.8496 29.1042 23.0154 28.2379 23.9365 27.1411C25.0536 25.0088 25.4906 22.5869 25.189 20.1998C25.2125 19.1516 24.9976 18.1116 24.5605 17.1581C24.1234 16.2045 23.4754 15.3621 22.6652 14.6942C21.855 14.0262 20.9036 13.55 19.8824 13.3014C18.8613 13.0528 17.797 13.0381 16.7694 13.2586C15.7952 13.2586 15.5169 13.675 15.5864 14.5774L15.5169 21.7269ZM62.6252 12.2174C62.2077 12.2174 62.0685 12.2174 62.0685 12.5644C60.816 19.5057 59.6331 25.8917 58.3806 32.5553C58.3806 33.2494 58.3806 33.3882 59.2156 33.3882H64.6431C65.8956 33.3882 66.0348 32.9718 65.826 31.8612C65.0606 27.5576 64.4344 23.254 63.7385 18.9504C63.321 16.7986 62.6252 14.5774 62.6252 12.2174ZM91.0154 16.3821V18.6728C91.0154 23.0458 91.0154 23.0458 95.3296 21.6575C96.2187 21.3161 97.0093 20.7607 97.6309 20.0406C98.2526 19.3206 98.6861 18.4583 98.8928 17.5306C99.0994 16.603 99.0728 15.6387 98.8154 14.7238C98.5579 13.8089 98.0776 12.9717 97.4171 12.2868C96.0976 11.2112 94.4584 10.601 92.755 10.5515C91.4329 10.5515 90.9458 10.5515 91.085 12.0786C91.2242 13.6056 90.9458 14.9245 90.9458 16.3821H91.0154ZM62.0685 41.6483C60.817 41.7178 59.5625 41.7178 58.311 41.6483C56.9193 41.6483 56.7801 42.2731 56.7105 43.2448C56.641 44.2166 56.7105 46.1602 56.7105 47.5484C56.7105 48.9367 56.7105 48.5896 57.6847 48.3814L64.6431 46.4378C67.3569 45.7437 67.3569 45.7437 67.2873 42.8978C67.1481 41.6483 66.8002 41.6483 66.1044 41.6483H62.0685Z" fill="#D20809"/>
<path d="M183.836 67.1891C179.505 65.2896 175.04 63.712 170.476 62.4691C162.094 60.0659 153.53 58.348 144.869 57.3325C136.537 56.3147 128.14 55.9202 119.749 56.1525C106.975 56.4251 94.2651 58.0303 81.8261 60.942C72.9552 63.0028 64.218 65.599 55.6625 68.7162C49.5391 70.9374 43.5549 73.4363 37.7099 76.1434C37.7099 76.1434 36.9444 76.6987 36.5965 76.1434C36.2486 75.5881 36.5965 75.3104 36.5965 74.8939C36.5965 72.048 37.5011 70.5903 40.2845 69.4103C47.4184 66.4391 54.7129 63.8669 62.1338 61.7055L73.1977 58.6514C78.7644 57.1243 84.4703 56.1525 90.1066 55.1113C92.8899 54.6254 95.6733 54.6949 98.4566 54.1395C104.004 53.2738 109.612 52.856 115.226 52.8901C123.222 52.5939 131.229 52.9654 139.163 54.0007C144.312 54.6949 149.322 55.736 154.402 56.7772C158.229 57.6102 161.987 58.5125 165.675 59.6926C169.363 60.8726 172.633 62.1914 175.904 63.302C178.269 64.0656 180.427 65.1068 182.862 66.0785C183.316 66.3124 183.664 66.7093 183.836 67.1891Z" fill="#1B78C4"/>
<path d="M98.4582 80.7228V86.4146C98.4641 86.9428 98.3326 87.4635 98.0764 87.9258C97.8203 88.3881 97.4484 88.7762 96.997 89.0523C96.0249 89.6523 94.9196 90.0042 93.7788 90.0769C92.6379 90.1495 91.4968 89.9407 90.4561 89.4688C90.1513 89.3347 89.8806 89.1342 89.6638 88.8819C89.447 88.6296 89.2898 88.3321 89.2036 88.0111C89.2036 87.1782 89.2036 86.5535 90.1082 86.7617C91.0127 86.9699 92.5436 86.137 93.309 87.6641C93.4238 87.7665 93.5725 87.8231 93.7265 87.8231C93.8806 87.8231 94.0292 87.7665 94.144 87.6641C94.3837 87.0862 94.3837 86.4372 94.144 85.8593C94.144 85.4429 93.5874 85.8593 93.3786 85.8593C90.2473 87.3864 88.4381 85.1652 88.5773 82.3887C88.7165 79.6122 88.5773 78.5016 88.5773 76.558C88.5959 76.0671 88.7482 75.5904 89.0177 75.1792C89.2872 74.768 89.6638 74.4376 90.1071 74.2236C90.5505 74.0097 91.0439 73.92 91.5344 73.9644C92.0249 74.0088 92.494 74.1856 92.8915 74.4757C93.4482 74.4757 93.6569 75.031 94.2832 74.4757C94.9095 73.9204 96.5099 74.4757 97.6232 74.4757C98.7366 74.4757 97.9711 75.1004 97.9711 75.5168C97.9711 77.391 97.9711 79.3345 97.9711 81.2087L98.4582 80.7228ZM94.2832 80.0981V77.2522C94.2832 76.8357 94.2832 76.4192 93.7961 76.3498C93.309 76.2804 93.1003 76.8357 93.0307 77.2522V82.7358C93.0307 83.2217 93.0307 83.7075 93.7265 83.7075C94.4224 83.7075 94.2832 83.2217 94.2832 82.8052V80.0981Z" fill="#1B78C4"/>
<path d="M111.335 80.7242C111.335 78.8501 111.335 76.9065 111.335 75.0324C111.335 73.1582 111.335 73.7829 112.449 73.9218C113.562 74.0606 114.884 73.2971 115.789 74.5465C116.693 75.7959 116.276 74.5465 116.484 74.5465C118.85 73.2276 120.868 74.5465 120.938 76.8371C121.007 79.1277 120.938 83.7784 120.938 86.9713C120.938 87.7349 120.59 87.9431 119.824 87.9431C116.693 87.9431 116.693 87.9431 116.693 84.9584V78.0171C116.693 77.3924 116.693 76.2818 116.067 76.2818C115.441 76.2818 115.51 77.323 115.51 77.9477C115.51 80.6779 115.51 83.385 115.51 86.069C115.51 87.249 115.51 87.6655 114.049 87.5961C111.266 87.5961 111.266 87.5961 111.266 84.8196V80.5854L111.335 80.7242Z" fill="#1B78C4"/>
<path d="M75.1489 80.6552C75.1489 78.8505 75.1489 76.9764 75.1489 75.1022C75.1489 73.2281 75.4968 73.7834 76.4014 73.9222C77.306 74.061 78.8369 73.2281 79.6719 74.6857C79.6719 74.6857 80.159 74.6857 80.4373 74.6857C82.664 73.4363 84.6123 74.6857 84.6819 76.9764C84.7515 79.267 84.6819 83.4317 84.6819 86.6941C84.6819 87.8047 84.6819 88.0824 83.3598 88.0824C80.6461 88.0824 80.6461 88.0824 80.6461 85.3753V77.5317C80.6461 76.9764 80.6461 76.2128 79.9502 76.2822C79.2544 76.3516 79.3935 76.9764 79.3935 77.4622C79.3935 80.3082 79.3935 83.2235 79.3935 86.1388C79.3935 87.3883 79.0456 87.7353 77.7931 87.7353C75.2185 87.7353 75.2185 87.7353 75.2185 85.1671V80.6552H75.1489Z" fill="#1B78C4"/>
<path d="M138.681 80.863C138.511 79.6193 138.511 78.3584 138.681 77.1147C138.814 76.213 139.266 75.3885 139.955 74.7902C140.644 74.1918 141.525 73.8592 142.439 73.8523C145.5 73.8523 147.101 74.5464 147.866 76.7676C147.866 76.7676 147.866 76.7676 147.866 77.2535C148.632 80.5853 148.284 81.0712 144.874 81.0712H143.343C142.995 81.0712 142.578 81.0712 142.578 81.6265C142.404 82.7304 142.404 83.8545 142.578 84.9583C142.578 84.9583 142.578 85.4442 143.204 85.4442C143.322 85.4454 143.436 85.4039 143.526 85.3273C143.616 85.2507 143.674 85.1442 143.691 85.0277C143.717 84.5885 143.717 84.1481 143.691 83.7089C143.691 83.1536 143.343 82.2512 144.039 82.1124C145.112 81.8361 146.237 81.8361 147.31 82.1124C147.31 82.1124 147.31 82.1124 147.31 82.4595C147.31 84.5418 146.683 87.2489 144.596 87.7348C143.188 88.1514 141.689 88.1514 140.282 87.7348C139.531 87.4816 138.881 86.9938 138.43 86.3437C137.979 85.6935 137.75 84.9157 137.777 84.1254C137.998 83.0174 138.3 81.927 138.681 80.863ZM144.039 77.8088C144.039 77.2535 144.039 76.4206 143.482 76.4206C142.926 76.4206 142.995 77.4617 142.856 77.9476C142.717 78.4335 142.856 78.9194 143.413 78.85C143.969 78.7806 143.97 78.2253 144.039 77.8088Z" fill="#1B78C4"/>
<path d="M125.251 80.9324C125.251 79.8912 125.251 78.9194 125.251 77.8782C125.599 75.2405 126.991 73.8523 129.426 73.8523C131.862 73.8523 134.367 75.0323 134.784 77.8088C135.202 80.5853 134.784 81.0712 132.001 81.0712C129.217 81.0712 129.426 80.5159 129.357 83.7089C129.357 84.1254 129.357 84.4724 129.357 84.8889C129.369 85.0392 129.43 85.1815 129.53 85.2942C129.631 85.4069 129.765 85.4839 129.913 85.5136C130.001 85.5338 130.091 85.5351 130.179 85.5173C130.267 85.4994 130.35 85.4629 130.423 85.4103C130.496 85.3576 130.556 85.29 130.6 85.212C130.644 85.1341 130.671 85.0475 130.679 84.9583C130.746 84.405 130.746 83.8457 130.679 83.2924C130.679 82.1818 131.096 81.9736 132.07 81.9736C134.854 81.9736 135.202 81.9736 134.367 85.0971C134.207 85.7885 133.844 86.4163 133.323 86.899C132.802 87.3817 132.147 87.697 131.444 87.8042C130.145 88.1519 128.777 88.1519 127.478 87.8042C126.735 87.4846 126.106 86.9498 125.671 86.269C125.237 85.5883 125.018 84.7931 125.042 83.9865C125.042 83.0148 125.042 82.043 125.042 81.1406L125.251 80.9324ZM129.357 77.7394C129.357 78.0865 129.357 78.7806 129.913 78.85C130.47 78.9194 130.679 78.3641 130.609 77.8782C130.539 77.3923 130.609 76.3511 129.913 76.3511C129.217 76.3511 129.426 77.2535 129.217 77.7394H129.357Z" fill="#1B78C4"/>
<path d="M67.4267 87.6667C63.7388 87.6667 63.7388 87.6667 63.7388 83.9185C63.7388 80.1702 63.7388 76.2137 63.7388 72.3265C63.7388 71.2854 63.7388 70.8689 65.1304 70.9383H69.5838C70.3492 70.9383 70.9059 70.9383 70.558 72.0489C70.5227 72.3022 70.5227 72.5591 70.558 72.8124C70.558 73.8536 70.558 74.4089 69.2359 74.2007C67.9138 73.9924 67.8442 74.8254 67.8442 75.7972C67.8442 76.769 67.8442 77.8101 69.2359 77.5325C70.6276 77.2548 70.558 78.0878 70.558 79.0596C70.558 80.0314 70.558 81.0031 69.2359 80.7255C67.9138 80.4478 67.6355 80.7255 67.8442 82.1137C68.053 83.502 67.0092 84.5432 69.0967 84.4738C71.1843 84.4044 71.5322 85.515 70.9755 87.1809C70.9755 87.6667 70.558 87.6667 70.2101 87.6667H67.4267Z" fill="#1B78C4"/>
<path d="M167.001 73.7847C169.923 73.7847 171.523 75.0341 171.384 77.4635C171.384 78.1577 171.384 78.4353 170.41 78.4353C169.972 78.3664 169.526 78.3664 169.088 78.4353C168.183 78.4353 167.627 78.4353 167.627 77.1859C167.627 75.9365 167.627 76.1447 166.931 76.3529C166.235 76.5612 166.235 77.0471 166.444 77.6024C166.508 77.895 166.634 78.1705 166.814 78.4101C166.994 78.6497 167.224 78.8477 167.488 78.9906L169.853 80.3095C170.391 80.5497 170.847 80.9394 171.168 81.4319C171.489 81.9243 171.661 82.4986 171.663 83.086C171.663 84.6825 171.663 86.4872 170.132 87.3201C169.19 87.8623 168.122 88.1478 167.035 88.1478C165.948 88.1478 164.88 87.8623 163.939 87.3201C163.401 86.8718 162.994 86.2869 162.761 85.6272C162.529 84.9676 162.479 84.2575 162.617 83.5719C162.617 83.086 163.104 83.086 163.452 83.086H165.261C166.026 83.086 166.305 83.086 166.374 84.0577C166.444 85.0295 166.374 85.3766 167.001 85.6542C167.627 85.9319 167.557 85.6542 167.627 85.1683C167.696 84.6825 167.627 83.5719 167.07 83.0166L164.704 81.6283C163.776 81.114 163.063 80.2858 162.693 79.293C162.323 78.3003 162.32 77.2084 162.686 76.2141C163.034 74.5482 164.496 73.7847 167.001 73.7847Z" fill="#1B78C4"/>
<path d="M156.561 75.1728C157.396 74.6175 157.953 73.5069 158.718 73.9234C159.484 74.3399 159.066 75.3811 159.066 76.1446C159.066 76.9082 159.414 78.7823 157.466 78.9905C156.77 78.9905 156.839 79.7541 156.77 80.3094C156.631 82.3663 156.631 84.4302 156.77 86.4871C156.77 87.4589 156.77 87.8059 155.517 87.8059C152.595 87.8059 152.595 87.8059 152.595 84.8212C152.595 81.8365 152.595 78.4352 152.595 75.1728C152.595 74.1317 152.943 73.7846 153.986 73.854H155.656C156.283 73.7846 156.7 74.0622 156.561 75.1728Z" fill="#1B78C4"/>
<path d="M107.015 80.8688C107.015 82.8123 107.015 84.7559 107.015 86.7688C107.015 87.463 107.015 87.6712 106.041 87.7406C102.771 87.7406 102.771 87.7406 102.771 84.617C102.771 81.4935 102.771 78.3005 102.771 75.1075C102.771 74.2051 102.771 73.9275 103.953 73.9275C107.085 73.9275 107.085 73.9275 107.085 76.9817V80.8688H107.015Z" fill="#1B78C4"/>
<path d="M104.79 73.0893C104.024 73.0893 102.493 73.7834 102.702 71.7705C102.702 71.2151 102.702 70.9375 103.537 70.9375H106.112C106.947 70.9375 107.086 71.354 107.016 72.0481C106.947 72.7422 107.016 73.2281 106.112 73.0893H104.79Z" fill="#1B78C4"/>
</svg>
