<svg width="38" height="38" viewBox="0 0 38 38" fill="none" xmlns="http://www.w3.org/2000/svg">
<path d="M15.8337 23.7503L24.0512 19.0003L15.8337 14.2503V23.7503ZM34.137 11.3528C34.3428 12.097 34.4853 13.0945 34.5803 14.3612C34.6912 15.6278 34.7387 16.7203 34.7387 17.6703L34.8337 19.0003C34.8337 22.4678 34.5803 25.017 34.137 26.6478C33.7412 28.0728 32.8228 28.9912 31.3978 29.387C30.6537 29.5928 29.292 29.7353 27.202 29.8303C25.1437 29.9412 23.2595 29.9887 21.5178 29.9887L19.0003 30.0837C12.3662 30.0837 8.23366 29.8303 6.60283 29.387C5.17783 28.9912 4.25949 28.0728 3.86366 26.6478C3.65783 25.9037 3.51533 24.9062 3.42033 23.6395C3.30949 22.3728 3.26199 21.2803 3.26199 20.3303L3.16699 19.0003C3.16699 15.5328 3.42033 12.9837 3.86366 11.3528C4.25949 9.92783 5.17783 9.00949 6.60283 8.61366C7.34699 8.40783 8.70866 8.26533 10.7987 8.17033C12.857 8.05949 14.7412 8.01199 16.4828 8.01199L19.0003 7.91699C25.6345 7.91699 29.767 8.17033 31.3978 8.61366C32.8228 9.00949 33.7412 9.92783 34.137 11.3528Z" fill="white"/>
</svg>
