<svg width="88" height="65" viewBox="0 0 88 65" fill="none" xmlns="http://www.w3.org/2000/svg">
<path fill-rule="evenodd" clip-rule="evenodd" d="M78.0442 0.00111869C79.2286 -0.0108567 79.7168 0.0695499 80.6227 0.425389C81.2364 0.664897 81.9722 1.00534 82.2558 1.18155C82.5394 1.35605 83.1772 1.93086 83.674 2.45607C84.1708 2.98299 84.8275 3.93246 85.1352 4.56716C85.6664 5.66376 85.6939 5.82115 85.6939 7.68931C85.6939 9.56944 85.6681 9.70972 85.118 10.8542C84.7673 11.5796 84.1588 12.4435 83.5709 13.0474C82.9984 13.6342 82.1767 14.2484 81.5682 14.5461C81.0009 14.8232 80.1104 15.1346 79.5913 15.2389C79.0721 15.345 78.1421 15.3878 77.5285 15.3364C76.9148 15.2851 75.9848 15.0884 75.4656 14.8985C74.9465 14.7069 74.056 14.2159 73.4887 13.8036C72.9214 13.393 72.1685 12.6386 71.8144 12.127C71.4603 11.6155 71.0047 10.7345 70.8036 10.1699C70.5354 9.42573 70.434 8.74314 70.434 7.68931C70.434 6.63547 70.5354 5.95288 70.8036 5.20869C71.0047 4.64414 71.4603 3.76481 71.8144 3.255C72.1685 2.74519 72.8441 2.03522 73.3168 1.67767C73.7895 1.31841 74.7178 0.798336 75.3797 0.519481C76.3784 0.100343 76.8322 0.0130941 78.0442 0.00111869ZM76.2753 5.94603C76.0105 6.19923 75.7217 6.69535 75.6306 7.04777C75.5275 7.44809 75.5258 7.93052 75.6255 8.33084C75.7149 8.69353 76.0329 9.20162 76.3561 9.49759C76.6689 9.78671 77.1967 10.0827 77.5285 10.1562C77.8602 10.2298 78.3622 10.2469 78.6458 10.1939C78.9295 10.1408 79.3747 9.94068 79.6343 9.74907C79.8938 9.55746 80.2239 9.16912 80.3649 8.88684C80.5058 8.60457 80.6244 8.04686 80.6279 7.64654C80.6313 7.16923 80.4972 6.71417 80.2376 6.32069C80.0193 5.99222 79.5724 5.58677 79.244 5.42254C78.9157 5.25831 78.4138 5.12829 78.1301 5.13342C77.8465 5.14026 77.4201 5.22067 77.1846 5.31476C76.9474 5.40885 76.5383 5.69284 76.2753 5.94603ZM10.9159 23.5994C11.2992 23.5994 11.8493 23.7517 12.1622 23.9416C12.4699 24.1298 12.8756 24.5335 13.0647 24.8397C13.252 25.146 13.4067 25.6849 13.4085 26.0373C13.4085 26.3897 13.2727 26.9594 13.1076 27.3032C12.8824 27.772 12.3736 28.2117 11.0878 29.0517C10.1423 29.671 8.74645 30.7949 7.98491 31.5494C6.93974 32.5878 6.43435 33.255 5.92207 34.2832C5.29119 35.5474 5.24305 35.7459 5.24305 37.1059C5.24305 38.4284 5.3015 38.6918 5.85503 39.8517C6.26932 40.7191 6.85551 41.5454 7.66002 42.3991C8.31669 43.0936 9.27763 43.9849 9.7985 44.3818C10.3176 44.777 11.4006 45.4938 12.2051 45.9763C13.0079 46.457 14.5362 47.2388 15.6002 47.7127C16.6643 48.1883 18.4435 48.8897 19.554 49.2712C20.6645 49.6527 22.5795 50.2258 23.8086 50.5457C25.0377 50.8656 27.0868 51.3224 28.3641 51.5619C29.6396 51.8014 31.5357 52.1042 32.5757 52.236C33.6157 52.3677 34.5045 52.4447 34.5526 52.4088C34.599 52.3711 34.1624 51.8596 33.5813 51.2711C33.0003 50.6826 32.4399 49.9897 32.335 49.7314C32.2319 49.4731 32.1459 48.9718 32.1459 48.6194C32.1477 48.267 32.3024 47.7281 32.4897 47.4219C32.6788 47.1156 33.0845 46.7119 33.3922 46.5237C33.6999 46.3372 34.2414 46.1833 34.5956 46.1816C34.9497 46.1816 35.4534 46.2637 35.7129 46.3629C35.9725 46.4638 37.8377 48.1763 39.8592 50.1694C42.5392 52.8159 43.6239 54.0032 43.8715 54.5643C44.1259 55.1374 44.1826 55.5087 44.0915 56.0185C43.9866 56.6241 43.5242 57.151 40.0793 60.6068C37.9374 62.7555 35.9725 64.6219 35.7129 64.7554C35.4534 64.8905 34.9686 65 34.6385 65C34.3068 65 33.7464 64.8204 33.3922 64.6014C33.0381 64.3841 32.6118 63.9222 32.4468 63.5749C32.2817 63.2294 32.1459 62.6785 32.1459 62.3483C32.1459 62.0181 32.2319 61.5768 32.3368 61.3646C32.4416 61.1525 33.2341 60.2697 34.0988 59.4024C35.1663 58.3314 35.5874 57.8028 35.4121 57.7549C35.2694 57.7156 34.0713 57.5616 32.7476 57.4127C31.4239 57.2639 29.258 56.9457 27.9343 56.7062C26.6107 56.4667 24.5598 56.0339 23.3789 55.7447C22.1962 55.4556 20.1471 54.8688 18.8234 54.4411C17.4998 54.0135 15.5263 53.2898 14.4399 52.833C13.3517 52.3763 11.6121 51.5311 10.5721 50.9563C9.53204 50.3815 8.13963 49.521 7.4778 49.0471C6.81597 48.5715 5.77939 47.752 5.17429 47.2251C4.56747 46.6982 3.60138 45.6786 3.0255 44.9601C2.44791 44.2415 1.69325 43.0868 1.34772 42.3939C1.00048 41.7011 0.555248 40.5566 0.357559 39.8517C0.144399 39.0904 0 38.064 0 37.3283C0 36.6458 0.12549 35.5303 0.276765 34.8477C0.429759 34.1651 0.821698 33.0292 1.14831 32.3244C1.47493 31.6178 2.07487 30.5794 2.48057 30.0148C2.88798 29.4503 3.9108 28.3348 4.75657 27.5342C5.60061 26.7336 6.86754 25.6849 7.57235 25.2041C8.27715 24.7217 9.16245 24.1623 9.54064 23.9621C9.91883 23.762 10.5377 23.5994 10.9159 23.5994ZM78.9896 24.6841C79.6154 24.7491 80.1053 24.9509 80.786 25.4265C81.3017 25.7858 82.4139 26.7336 83.2597 27.5342C84.1038 28.3348 85.1266 29.4503 85.534 30.0148C85.9397 30.5794 86.5379 31.6178 86.8628 32.3244C87.1877 33.0292 87.5917 34.184 87.7601 34.8905C87.9853 35.8417 88.0403 36.5705 87.9733 37.7133C87.9149 38.6747 87.7137 39.7662 87.437 40.6216C87.1929 41.3743 86.6118 42.6061 86.146 43.3588C85.6801 44.1115 84.8068 45.2595 84.2069 45.9095C83.607 46.5579 82.4965 47.5707 81.7401 48.1575C80.9837 48.7443 79.746 49.6065 78.9896 50.0736C78.2332 50.5406 76.9955 51.2335 76.2392 51.6132C75.4828 51.993 74.1677 52.5918 73.3168 52.9442C72.4659 53.2984 70.8792 53.8869 69.7928 54.2564C68.7046 54.6242 66.965 55.1511 65.925 55.4265C64.8849 55.702 63.0662 56.1245 61.8852 56.3675C60.7025 56.6104 58.7686 56.9543 57.5877 57.1322C56.0079 57.3717 55.279 57.4127 54.8372 57.2896C54.5054 57.1989 54.0619 57.009 53.8488 56.8704C53.6356 56.7319 53.3073 56.2717 53.1182 55.8474C52.8844 55.3256 52.8087 54.8979 52.8809 54.5216C52.9394 54.2153 53.0941 53.7534 53.2247 53.4951C53.3554 53.2368 53.7129 52.8775 54.0207 52.6962C54.3284 52.5148 55.236 52.2787 56.0405 52.171C56.8433 52.0632 58.5073 51.7843 59.7364 51.5499C60.9656 51.3173 62.9768 50.8639 64.2059 50.5423C65.435 50.2224 67.2142 49.6989 68.1597 49.3807C69.1052 49.0608 70.7297 48.4432 71.7697 48.007C72.8097 47.5707 74.3568 46.8197 75.2077 46.3355C76.0587 45.8531 77.2568 45.0884 77.8723 44.6367C78.4859 44.1868 79.5002 43.2904 80.1225 42.6471C80.7448 42.0039 81.4616 41.1502 81.7126 40.7499C81.9636 40.3496 82.3331 39.5421 82.5326 38.9536C82.8231 38.0965 82.8746 37.6465 82.7921 36.6868C82.7234 35.8947 82.524 35.1403 82.2008 34.4628C81.9309 33.8983 81.312 32.9556 80.8238 32.3671C80.3356 31.7786 79.2011 30.7197 78.302 30.0148C77.403 29.3083 76.5778 28.559 76.4661 28.3468C76.3544 28.1347 76.2581 27.6026 76.2512 27.1613C76.2426 26.6035 76.3475 26.2152 76.5984 25.8782C76.7961 25.613 77.2225 25.2161 77.5439 24.9954C78.0287 24.6652 78.2797 24.6105 78.9896 24.6841ZM23.9376 15.4014C24.5753 15.3946 25.6583 15.4938 26.3442 15.6238C27.0301 15.7539 27.9773 16.055 28.45 16.2928C28.9228 16.5305 29.5571 16.9822 29.8596 17.297C30.1622 17.6118 30.5868 18.2533 30.8034 18.7238C31.1386 19.4508 31.1953 19.8494 31.185 21.3754C31.1747 22.8193 31.0956 23.3719 30.7759 24.1982C30.5215 24.8603 30.114 25.483 28.8798 26.6788L29.5244 26.9987C29.8785 27.1732 30.4338 27.5787 30.757 27.8969C31.0801 28.2151 31.4841 28.7831 31.656 29.1594C31.8262 29.5358 32.017 30.345 32.0772 30.9557C32.1373 31.5665 32.0995 32.6443 31.9929 33.3508C31.8743 34.1446 31.5873 35.0547 31.2417 35.7373C30.8687 36.4764 30.4011 37.0717 29.8252 37.5439C29.3525 37.9288 28.5016 38.4198 27.9343 38.6337C27.367 38.8475 26.5161 39.0939 26.0434 39.1828C25.5706 39.2701 24.565 39.3402 23.8086 39.3385C23.0523 39.3351 21.9503 39.2187 21.359 39.0802C20.7677 38.9399 19.8789 38.6251 19.3821 38.3788C18.8853 38.1324 18.1066 37.5371 17.6528 37.0529C17.1456 36.514 16.6918 35.8092 16.4804 35.2327C16.281 34.6886 16.1331 33.8589 16.1314 33.2653C16.1297 32.492 16.2071 32.1635 16.4443 31.9326C16.6179 31.7632 17.1474 31.5511 17.6201 31.4621C18.0928 31.3732 18.789 31.3441 19.1672 31.3988C19.5454 31.4519 20.0697 31.587 20.3327 31.6965C20.6198 31.8163 20.8794 32.102 20.9808 32.4099C21.0736 32.6922 21.1458 33.1147 21.1424 33.3508C21.139 33.5852 21.3109 33.9462 21.5257 34.1515C21.7423 34.3567 22.1308 34.6082 22.3904 34.7075C22.65 34.8084 23.3857 34.8905 24.0235 34.8905C24.7833 34.8905 25.3919 34.7861 25.7855 34.5911C26.1224 34.4235 26.523 34.0283 26.6966 33.693C26.939 33.2225 26.994 32.776 26.9545 31.6007C26.9063 30.203 26.8702 30.073 26.3872 29.5837C25.9557 29.1457 25.6514 29.0277 24.5255 28.8532C23.5078 28.6975 23.0866 28.5487 22.8064 28.2476C22.5125 27.9328 22.4334 27.6386 22.4334 26.8499C22.4334 26.0612 22.5125 25.767 22.8064 25.4522C23.066 25.1733 23.4665 25.0142 24.1387 24.9253C24.6664 24.8551 25.2526 24.72 25.4417 24.6259C25.6308 24.5318 25.8938 24.2427 26.0262 23.9844C26.1585 23.726 26.3201 23.1666 26.3855 22.7441C26.4508 22.3164 26.4216 21.6509 26.3167 21.2471C26.1809 20.7236 25.9729 20.4225 25.5706 20.1694C25.1065 19.8768 24.785 19.8272 23.6642 19.87C22.5709 19.911 22.2615 19.9863 22.0208 20.2634C21.8592 20.4516 21.6701 20.9905 21.6048 21.461C21.5206 22.0478 21.3435 22.4515 21.041 22.7441C20.6336 23.1392 20.4754 23.1717 18.985 23.1717C17.5342 23.1717 17.3313 23.1324 16.9806 22.7817C16.6403 22.4447 16.5904 22.2274 16.6059 21.1565C16.6196 20.2121 16.7279 19.6989 17.0649 18.9804C17.3158 18.4466 17.8659 17.7093 18.3369 17.2782C18.7942 16.859 19.5145 16.368 19.9408 16.1867C20.3654 16.0036 21.1785 15.7556 21.7458 15.6358C22.3131 15.5144 23.2998 15.4083 23.9376 15.4014ZM44.0073 15.41C44.5264 15.3997 45.4547 15.4682 46.0701 15.564C46.6838 15.6598 47.729 15.9968 48.3908 16.3133C49.193 16.6976 49.8411 17.167 50.335 17.7212C50.7425 18.178 51.2444 18.8983 51.4507 19.3225C51.7275 19.8922 51.8254 20.4106 51.8272 21.319C51.8289 22.3951 51.7773 22.5986 51.3991 22.9887C51.1395 23.2556 50.6978 23.4728 50.2818 23.5344C49.9036 23.5926 49.2263 23.5909 48.7776 23.5327C48.298 23.4711 47.7788 23.2693 47.5175 23.0434C47.2253 22.7885 47.019 22.3694 46.909 21.8031C46.8179 21.3327 46.6494 20.84 46.536 20.7065C46.4208 20.5748 46.0185 20.325 45.6404 20.154C45.2622 19.9829 44.566 19.8409 44.0932 19.8375C43.5328 19.834 42.969 19.9675 42.4705 20.219C41.9891 20.4619 41.5886 20.828 41.3909 21.2044C41.1777 21.6081 41.0385 22.3591 40.9646 23.5139C40.9061 24.4548 40.9079 25.3598 40.9715 25.5241C41.0763 25.8012 41.1262 25.7961 41.6436 25.4471C41.9513 25.2384 42.5495 24.9681 42.9759 24.8449C43.4005 24.7217 44.3683 24.6242 45.1246 24.6276C45.881 24.631 46.8282 24.7097 47.2305 24.8004C47.6327 24.8928 48.2894 25.1186 48.6916 25.3034C49.0939 25.4881 49.7128 25.9107 50.0669 26.2443C50.421 26.5779 50.8955 27.216 51.1206 27.6625C51.3441 28.109 51.6157 28.8789 51.7223 29.3733C51.8272 29.8677 51.9131 30.8685 51.9131 31.5973C51.9114 32.3261 51.7945 33.4038 51.6553 33.9924C51.5143 34.5809 51.2444 35.3695 51.0553 35.7459C50.8662 36.1223 50.3832 36.7843 49.9809 37.2154C49.5598 37.6671 48.812 38.206 48.2189 38.4848C47.6516 38.75 46.7234 39.0511 46.1561 39.1537C45.5888 39.2564 44.5832 39.3402 43.9213 39.3402C43.2595 39.3402 42.2539 39.2547 41.6866 39.1503C41.1193 39.0442 40.2684 38.7911 39.7956 38.584C39.3229 38.377 38.5597 37.8672 38.099 37.4481C37.6383 37.029 37.0486 36.2625 36.7891 35.7459C36.5278 35.2292 36.2269 34.4012 36.1221 33.9068C36 33.344 35.9278 30.8856 35.9261 27.3204C35.9261 22.7406 35.9777 21.4319 36.1925 20.6056C36.3387 20.041 36.7065 19.1651 37.0091 18.6587C37.3134 18.1524 37.9477 17.4475 38.4204 17.09C38.8932 16.7324 39.7045 16.2756 40.2254 16.0721C40.7446 15.8702 41.5955 15.6427 42.1163 15.5674C42.6355 15.4921 43.4864 15.4203 44.0073 15.41ZM41.3101 29.801C41.1073 30.191 41.0179 30.7898 41.0144 31.8111C41.0093 32.9573 41.0798 33.3884 41.3479 33.8469C41.5336 34.1651 41.9049 34.5894 42.1714 34.7879C42.5616 35.077 42.9054 35.1471 43.9213 35.1471C44.9287 35.1471 45.2845 35.0753 45.6713 34.793C45.9378 34.598 46.2919 34.1737 46.4569 33.8521C46.6666 33.4432 46.7577 32.8632 46.7577 31.9394C46.7577 31.2004 46.6529 30.3672 46.5222 30.0576C46.3916 29.7514 46.077 29.3083 45.8209 29.0739C45.422 28.7078 45.1625 28.6394 44.0365 28.5949C42.9449 28.5521 42.6217 28.6034 42.1593 28.8943C41.8516 29.0876 41.47 29.4947 41.3101 29.801ZM63.6902 15.4083C64.2575 15.398 65.2236 15.4699 65.839 15.5674C66.4527 15.6649 67.4205 15.9574 67.9878 16.2175C68.5551 16.4775 69.3287 16.9651 69.7068 17.2987C70.085 17.634 70.6386 18.3594 70.936 18.9136C71.2333 19.4679 71.5686 20.3438 71.6803 20.8622C71.8213 21.5209 71.8659 23.6559 71.8247 27.9619C71.7697 33.799 71.7456 34.1703 71.3932 35.0616C71.1886 35.5782 70.6403 36.4268 70.1727 36.9434C69.7068 37.4601 68.947 38.0913 68.4846 38.3445C68.0222 38.5977 67.1025 38.933 66.4407 39.0904C65.5365 39.3043 64.7663 39.3522 63.3464 39.2855C62.0675 39.2256 61.122 39.0802 60.4241 38.8372C59.8568 38.6405 59.0059 38.1906 58.5331 37.8347C58.0604 37.4806 57.4175 36.8083 57.1046 36.3395C56.79 35.8725 56.4032 35.065 56.2451 34.5483C55.9958 33.7392 55.9546 32.7315 55.9546 27.3631C55.9546 21.7176 55.9855 21.0282 56.276 20.1779C56.4514 19.6595 56.8382 18.8589 57.1355 18.3987C57.4312 17.9368 57.9435 17.3466 58.2753 17.0865C58.6053 16.8265 59.3032 16.4176 59.8224 16.1781C60.3415 15.9369 61.1942 15.6717 61.7133 15.5845C62.2325 15.499 63.1229 15.4186 63.6902 15.4083ZM61.373 21.2471C61.0567 21.9229 61.0326 22.3574 61.0292 27.4487C61.0274 32.3244 61.0584 32.9881 61.3265 33.5185C61.4916 33.8452 61.8973 34.29 62.229 34.5073C62.688 34.8067 63.0748 34.9008 63.8621 34.9008C64.6477 34.9008 65.0345 34.8067 65.4849 34.5107C65.8115 34.2969 66.2361 33.8521 66.4304 33.5219C66.7673 32.9505 66.7845 32.6665 66.7845 27.3631C66.7845 22.1111 66.7656 21.7706 66.4407 21.2215C66.2516 20.9033 65.8768 20.479 65.6104 20.2806C65.2786 20.0359 64.811 19.9059 64.1492 19.8734C63.4444 19.8375 62.9717 19.9213 62.4439 20.1728C61.9041 20.4294 61.6239 20.71 61.373 21.2471Z" fill="white"/>
</svg>
